<svg width="96" height="96" viewBox="0 0 96 96" fill="none" xmlns="http://www.w3.org/2000/svg">
  <defs>
    <linearGradient id="ring" x1="8" y1="10" x2="82" y2="86" gradientUnits="userSpaceOnUse">
      <stop stop-color="#47B363"/>
      <stop offset="1" stop-color="#2C8E48"/>
    </linearGradient>
    <linearGradient id="leaf" x1="13" y1="34" x2="28" y2="51" gradientUnits="userSpaceOnUse">
      <stop stop-color="#61C57B"/>
      <stop offset="1" stop-color="#2F9E44"/>
    </linearGradient>
  </defs>
  <rect width="96" height="96" rx="28" fill="#F5FBF6"/>
  <circle cx="49" cy="49" r="32" stroke="url(#ring)" stroke-width="6"/>
  <path d="M38 64V36H52.5C59.9558 36 66 42.0442 66 49.5C66 56.9558 59.9558 63 52.5 63H46.5" stroke="#2F9E44" stroke-width="8" stroke-linecap="round" stroke-linejoin="round"/>
  <path d="M20 54C24.8 53.4 28.3 50.9 30 46.5C25.8 46 22.8 42.7 22.5 38.5C18.7 41.3 16.9 44.8 17 49.6C17.1 51.3 17.9 53 20 54Z" fill="url(#leaf)"/>
  <path d="M18 61.5C21.6 62.1 24.8 60.9 27.2 57.8C24.6 56.5 23.1 53.7 23.2 50.8C19.8 52.1 17.9 54.6 17.4 58.1C17.2 59.4 17.4 60.5 18 61.5Z" fill="#4BB267"/>
  <path d="M63.8 30.2C67.5 31 70.1 32.9 71.9 35.9" stroke="#7A1E2B" stroke-width="4" stroke-linecap="round"/>
</svg>
